<?xml version="1.0" standalone="no"?>
<!DOCTYPE svg PUBLIC "-//W3C//DTD SVG 20010904//EN"
 "http://www.w3.org/TR/2001/REC-SVG-20010904/DTD/svg10.dtd">
<svg version="1.0" xmlns="http://www.w3.org/2000/svg"
 width="460.000000pt" height="460.000000pt" viewBox="0 0 460.000000 460.000000"
 preserveAspectRatio="xMidYMid meet">

<g transform="translate(0.000000,460.000000) scale(0.100000,-0.100000)"
fill="#000000" stroke="none">
<path d="M1780 4350 c-153 -28 -276 -93 -372 -193 -90 -94 -138 -194 -162
-338 -5 -30 -15 -41 -66 -73 -83 -53 -157 -145 -189 -236 -21 -59 -29 -165
-20 -246 20 -178 143 -336 310 -396 l64 -23 813 -3 c788 -2 815 -2 880 17 249
74 374 324 303 603 -44 170 -192 305 -357 326 l-59 7 -6 70 c-22 261 -295 432
-546 340 l-67 -24 -34 27 c-140 112 -342 171 -492 142z m291 -142 c41 -19 104
-59 140 -89 35 -30 69 -58 76 -62 6 -4 44 10 85 30 62 32 83 38 138 38 118 0
232 -73 286 -183 14 -28 19 -60 19 -132 0 -52 4 -101 8 -107 5 -8 32 -13 71
-13 167 0 290 -90 345 -251 27 -81 27 -167 -1 -250 -38 -113 -104 -183 -213
-225 -48 -18 -88 -19 -850 -19 -764 0 -802 1 -850 19 -78 30 -121 61 -170 124
-62 79 -80 135 -80 252 1 74 6 107 23 151 26 66 102 149 165 180 61 31 77 48
77 82 0 49 40 178 73 236 54 96 150 178 258 222 87 35 108 38 219 35 96 -2
112 -6 181 -38z"/>
<path d="M2310 2129 c-135 -22 -263 -129 -314 -263 -26 -69 -28 -84 -24 -173
5 -106 29 -176 84 -249 40 -52 126 -110 202 -135 135 -46 325 -21 426 56 l36
27 0 159 0 159 -45 0 -45 0 0 -143 0 -143 -47 -25 c-43 -21 -61 -24 -168 -24
-107 0 -125 3 -167 24 -101 52 -176 155 -187 260 -19 172 60 314 207 372 86
35 226 33 302 -3 31 -15 64 -36 75 -47 l18 -21 29 27 28 27 -23 24 c-75 80
-229 116 -387 91z"/>
<path d="M3391 2130 c-49 -11 -116 -47 -148 -82 -72 -76 -70 -211 4 -279 45
-42 123 -73 257 -104 136 -32 199 -81 199 -158 0 -71 -67 -131 -159 -143 -109
-13 -219 11 -300 66 l-44 30 -17 -35 c-16 -33 -16 -36 3 -50 93 -74 261 -109
386 -81 89 20 141 49 182 99 29 36 31 44 31 121 0 70 -3 86 -23 111 -47 60
-78 74 -317 141 -127 36 -165 68 -165 139 0 70 17 95 94 136 58 31 206 24 291
-15 56 -25 60 -26 72 -10 44 61 -46 110 -217 119 -47 2 -105 0 -129 -5z"/>
<path d="M890 1710 l0 -420 45 0 45 0 0 333 0 332 65 -110 c35 -60 74 -126 86
-145 11 -19 49 -84 84 -145 84 -146 93 -157 118 -153 21 3 47 40 106 148 17
30 57 100 90 155 33 55 79 134 103 175 l43 75 3 -332 2 -333 45 0 45 0 0 421
0 420 -42 -3 c-35 -3 -44 -8 -60 -36 -10 -18 -62 -108 -115 -200 -53 -92 -117
-203 -142 -247 -51 -89 -79 -131 -83 -124 -2 2 -13 18 -24 34 -12 17 -31 48
-43 70 -28 52 -60 107 -135 233 -70 118 -69 115 -119 205 -37 65 -39 67 -77
67 l-40 0 0 -420z"/>
<path d="M2932 1397 c-52 -55 3 -135 69 -101 47 23 46 89 -1 114 -29 15 -44
12 -68 -13z"/>
<path d="M2550 745 c0 -140 2 -165 15 -165 13 0 15 25 15 165 0 140 -2 165
-15 165 -13 0 -15 -25 -15 -165z"/>
<path d="M2210 741 l0 -161 94 0 c108 0 138 8 162 45 23 35 12 92 -22 107
l-24 11 21 23 c29 31 23 81 -14 108 -23 17 -46 22 -123 24 l-94 4 0 -161z
m200 109 c25 -25 25 -41 2 -70 -15 -18 -31 -23 -90 -28 l-72 -5 0 62 0 61 70
0 c57 0 74 -4 90 -20z m8 -136 c14 -10 22 -26 22 -44 0 -44 -31 -60 -117 -60
l-73 0 0 60 0 60 73 0 c49 0 80 -5 95 -16z"/>
<path d="M2723 809 c-49 -14 -73 -52 -73 -114 0 -48 3 -56 35 -84 55 -48 136
-40 182 19 16 19 17 101 2 134 -7 14 -28 32 -51 40 -43 18 -49 18 -95 5z m88
-29 c29 -16 51 -67 44 -101 -21 -96 -175 -87 -175 11 0 35 23 86 42 93 23 9
69 7 89 -3z"/>
<path d="M3003 809 c-44 -13 -73 -53 -73 -101 0 -50 12 -71 54 -97 43 -27 90
-27 127 0 l29 20 0 -31 c0 -67 -82 -102 -154 -65 -24 13 -31 13 -37 3 -21 -33
121 -57 173 -29 14 7 31 24 37 38 15 32 15 273 0 273 -6 0 -13 -8 -16 -19 -4
-18 -6 -18 -41 0 -40 21 -52 22 -99 8z m109 -46 c73 -70 -11 -175 -105 -132
-50 23 -61 89 -22 132 35 37 88 37 127 0z"/>
</g>
</svg>
